<svg xmlns="http://www.w3.org/2000/svg" version="1.1" xmlns:xlink="http://www.w3.org/1999/xlink" width="512"
    height="512" x="0" y="0" viewBox="0 0 512 512" style="enable-background:new 0 0 512 512" xml:space="preserve"
    class="">
    <g>
        <path fill="#ff9100"
            d="M42.305 386.888h427.389c19.927-35.442 31.307-76.334 31.307-119.89 0-135.311-109.691-245.002-245.002-245.002S10.997 131.687 10.997 266.998c.001 43.556 11.381 84.447 31.308 119.89z"
            opacity="1" data-original="#ff9100"></path>
        <path fill="#56415e"
            d="M164.61 157.476h183.271c.325-13.205 2.527-48.157 16.328-73.055a13.743 13.743 0 0 0 .926-11.304c-5.008-13.962-19.966-46.602-52.588-55.308-1.738-.464-2.197-2.712-.783-3.823l4.889-3.841c2.217-1.742 1.365-5.28-1.403-5.813-24.068-4.642-104.004-15.75-128.834 35.307-1.482 3.047-4.275 5.241-7.555 6.09-7.225 1.87-20.22 7.506-28.69 24.395a13.82 13.82 0 0 0-.752 10.633c4.117 12.131 14.145 44.705 15.191 76.719z"
            opacity="1" data-original="#56415e"></path>
        <path fill="#45304c"
            d="M246.615 76.772C217.343 32.163 268.545.018 268.545.018c-31.052.402-66.923 8.354-82.129 39.621-1.482 3.047-4.275 5.241-7.555 6.09-7.225 1.87-20.22 7.506-28.69 24.395a13.82 13.82 0 0 0-.752 10.633c4.116 12.131 14.145 44.705 15.191 76.719h42.66c27-21.871 56.739-54.196 39.345-80.704z"
            opacity="1" data-original="#45304c"></path>
        <path fill="#ffd9a1"
            d="M255.739 382.802a80.528 80.528 0 0 0 45.175-13.856c10.015-14.256 17.523-31.75 16.35-51.508-1.123-18.909-9.598-30.738-9.912-31.167-1.768-2.721-3.295-6.087-4.552-10.011h-3.076a107.888 107.888 0 0 1-7.705 6.604c-10.352 8.039-23.126 12.405-36.282 12.405s-25.93-4.366-36.281-12.405a108.1 108.1 0 0 1-7.704-6.604h-2.657c.07.068.136.141.206.209-1.272 4.05-2.83 7.509-4.635 10.293-.62.861-8.829 12.608-9.933 31.198-1.164 19.611 6.223 36.99 16.126 51.188a80.538 80.538 0 0 0 44.88 13.654z"
            opacity="1" data-original="#ffd9a1"></path>
        <path fill="#f9c98a"
            d="M255.739 295.269c-13.156 0-25.93-4.366-36.281-12.405a107.842 107.842 0 0 1-7.704-6.604h-2.657c.07.068.136.141.206.209-1.272 4.05-2.83 7.509-4.635 10.294-.62.861-8.829 12.607-9.933 31.197-1.164 19.611 6.223 36.991 16.126 51.188 47.473-17.232 44.878-73.879 44.878-73.879z"
            opacity="1" data-original="#f9c98a"></path>
        <path fill="#ffc839"
            d="M208.364 365.406c6.513 10.186 14.473 18.895 21.896 25.804a8.471 8.471 0 0 1 2.69 6.183v113.519c7.59.709 15.275 1.088 23.05 1.088s15.46-.379 23.05-1.087V397.691c.085-.412-.473-4.059 2.689-7.003 7.359-6.849 15.245-15.47 21.727-25.544a80.513 80.513 0 0 1-47.727 15.657 80.509 80.509 0 0 1-47.375-15.395z"
            opacity="1" data-original="#ffc839"></path>
        <path fill="#ffdd40"
            d="M230.259 391.211a8.471 8.471 0 0 1 2.69 6.183v5.609a80.624 80.624 0 0 0 22.789 3.299 80.584 80.584 0 0 0 23.311-3.459v-5.152c.085-.412-.473-4.059 2.689-7.003 7.359-6.849 15.245-15.47 21.727-25.544a80.514 80.514 0 0 1-47.727 15.658 80.517 80.517 0 0 1-47.375-15.396c6.514 10.187 14.474 18.896 21.896 25.805z"
            opacity="1" data-original="#ffdd40"></path>
        <path fill="#945230"
            d="M469.694 386.888c-1.862-5.508-3.874-10.567-6.056-15.018-15.118-30.84-69.667-32-87.333-49.667 0 0-4.971 69.713-98.756 75.19v113.652c82.624-7.201 153.489-55.404 192.145-124.157zM158.245 367.63c-.741 3.537-.882 7.494-.4 11.868-8.282 1.173-46.958 8.605-46.958 44.877v40.018c35.187 25.91 77.55 42.642 123.563 46.652V397.393c-38.332-2.238-61.821-15.208-76.205-29.763z"
            opacity="1" data-original="#945230"></path>
        <path fill="#753616"
            d="M135.695 322.204C118.028 339.87 63.48 341.03 48.361 371.87c-2.182 4.451-4.194 9.51-6.056 15.018 17.434 31.008 41.421 57.834 70.082 78.605v-41.118c0-39.506 47.133-43.573 47.133-43.573-.637-4.577-.582-8.514.007-11.907-22.014-21.331-23.832-46.691-23.832-46.691z"
            opacity="1" data-original="#753616"></path>
        <path fill="#ffd9a1"
            d="M354.995 152.135c-4.103-3.76-13.276-1.854-16.81.448.774 4.821.818 9.753.149 14.623l-4.17 30.372c0 2.448-.077 4.85-.219 7.21 10.169 3.067 16.22-6.062 17.071-12.327a46.57 46.57 0 0 1 1.796-7.949c2.705-8.446 12.463-22.956 2.183-32.377z"
            opacity="1" data-original="#ffd9a1"></path>
        <path fill="#f9c98a"
            d="M156.483 152.135c4.103-3.76 13.276-1.854 16.81.448a49.656 49.656 0 0 0-.149 14.623l4.17 30.372c0 2.448.077 4.85.219 7.21-10.169 3.067-16.22-6.062-17.071-12.327a46.57 46.57 0 0 0-1.796-7.949c-2.706-8.446-12.463-22.956-2.183-32.377z"
            opacity="1" data-original="#f9c98a"></path>
        <path fill="#b26847"
            d="M370.891 294.673c-12.968-13.811-36.783-24.915-55.172-35.803 0 0-.286.164-.887.49a114.415 114.415 0 0 1-13.834 16.164c1.087 3.645 2.722 7.912 5.096 11.566 0 0 34.252 47.001-25.377 102.501a9.954 9.954 0 0 0-3.169 7.281c0 6.558 6.226 11.346 12.555 9.629 17.743-4.813 50.752-15.742 75.54-35.486 23.716-18.892 26.002-54.239 5.248-76.342zM200.997 347.767c-4.587-.711-24.896-3.122-36.128 7.601-5.817 5.553-8.177 13.666-7.023 24.13l-.3.045c22.819 14.761 49.17 23.361 64.35 27.479 6.329 1.717 12.555-3.071 12.555-9.629a9.954 9.954 0 0 0-3.169-7.281c-16.104-14.988-25.352-29.354-30.285-42.345z"
            opacity="1" data-original="#b26847"></path>
        <path fill="#945230"
            d="M205.905 287.612c2.378-3.66 4.014-7.935 5.102-11.583a114.318 114.318 0 0 1-14.095-16.285c-.42-.229-.631-.35-.631-.35-18.389 10.887-42.204 21.991-55.172 35.802-20.754 22.103-18.468 57.45 5.247 76.34 4.19 3.338 8.618 6.417 13.164 9.264-5.615-40.327 42.111-31.407 42.111-31.407l.004-.004c-14.532-35.958 4.27-61.777 4.27-61.777z"
            opacity="1" data-original="#945230"></path>
        <path fill="#deeeff"
            d="M192.819 467.948c-4.693 0-8.532-3.839-8.532-8.532v-70.083c0-4.693 3.839-8.532 8.532-8.532 4.692 0 8.532 3.839 8.532 8.532v70.083c-.001 4.693-3.84 8.532-8.532 8.532zM319.704 467.948c-4.693 0-8.532-3.839-8.532-8.532v-70.083c0-4.693 3.839-8.532 8.532-8.532s8.532 3.839 8.532 8.532v70.083c0 4.693-3.84 8.532-8.532 8.532z"
            opacity="1" data-original="#deeeff"></path>
        <path fill="#fce6ca"
            d="M336.675 143.2c-.939-2.449-2.122-4.929-3.613-7.268-2.525-3.961-3.636-8.648-3.297-13.32.973-13.438.452-39.721-17.19-47.659-14.987-6.744-33.372-2.839-45.096 1.06a37.242 37.242 0 0 1-22.632.263c-13.358 10.252-13.672 33.335-12.769 45.626a21.905 21.905 0 0 1-3.35 13.381c-1.463 2.296-2.634 4.726-3.57 7.131-3.037 7.802-3.923 16.264-2.785 24.55l4.226 30.781c0 44.252 23.622 74.33 43.715 89.934 2.966 2.303 6.14 4.284 9.452 5.975a58.855 58.855 0 0 0 12.253-7.316c19.831-15.399 43.144-45.085 43.144-88.759l4.17-30.372c1.114-8.098.271-16.367-2.658-24.007z"
            opacity="1" data-original="#fce6ca"></path>
        <path fill="#ffd9a1"
            d="M270.458 286.337c-19.831-15.399-43.144-45.085-43.144-88.759l-4.171-30.378c-1.123-8.177-.249-16.529 2.749-24.229.924-2.374 2.079-4.772 3.524-7.038a21.62 21.62 0 0 0 3.307-13.206c-.92-12.516-.562-36.369 13.894-45.955a36.802 36.802 0 0 1-2.617-.76c-11.724-3.899-30.109-7.803-45.096-1.06-17.692 7.96-18.166 34.371-17.181 47.774a21.613 21.613 0 0 1-3.307 13.206c-1.444 2.266-2.6 4.664-3.524 7.038-2.997 7.7-3.871 16.052-2.749 24.229l4.171 30.378c0 43.674 23.314 73.359 43.144 88.759 10.351 8.038 23.125 12.404 36.281 12.404a59.274 59.274 0 0 0 25.5-5.768 58.626 58.626 0 0 1-10.781-6.635z"
            opacity="1" data-original="#ffd9a1"></path>
        <path fill="#ffb332"
            d="M501.002 266.998c0-73.293-32.194-139.058-83.2-183.956-22.359 17.563-44.498 43.681-33.043 75.39 20.319 56.244-71.652 91.712 31.014 132.478 38.013 15.094 61.271 30.792 75.509 44.582 6.321-21.737 9.72-44.717 9.72-68.494zM10.998 266.998c0-73.293 32.194-139.058 83.199-183.956 22.359 17.563 44.498 43.681 33.043 75.39-20.319 56.244 71.652 91.712-31.014 132.478-38.013 15.094-61.271 30.792-75.508 44.582-6.321-21.737-9.72-44.717-9.72-68.494z"
            opacity="1" data-original="#ffb332"></path>
        <path fill="#753616"
            d="M437.608 431.418c-4.848-20.04-17.209-31.614-27.207-37.935-6.251-3.952-14.402.496-14.402 7.892v66.688a246.351 246.351 0 0 0 41.609-36.645z"
            opacity="1" data-original="#753616"></path>
    </g>
</svg>